<svg clip-rule="evenodd" fill-rule="evenodd" stroke-linejoin="round" stroke-miterlimit="2" viewBox="0 0 510 510" xmlns="http://www.w3.org/2000/svg"><path d="m248.133 362.033h126.717v-74.867h67.453v108.593c0 18.627-15.1 33.726-33.726 33.726h-160.444zm-180.562-138.097v-108.593c0-18.626 15.1-33.726 33.726-33.726h160.443v67.453h-126.717v74.866zm299.63-209.913v37.683c0 1.879-1.513 3.393-3.392 3.393h-37.684c.314-.731.783-1.409 1.41-1.983l37.683-37.684c.626-.626 1.252-1.096 1.983-1.409zm-310.103 270.991v37.683c0 1.879-1.513 3.393-3.392 3.393h-37.683c.313-.731.783-1.41 1.409-1.984l37.683-37.683c.626-.626 1.253-1.096 1.983-1.409z" fill="#9bc9ff"/><path d="m256.133 437.46v1.522c0 4.418-3.581 8-8 8h-29c-4.419 0-8-3.582-8-8v-86.497c0-4.418 3.581-8 8-8h29c4.419 0 8 3.582 8 8v1.523h110.717v-58.867h-1.522c-4.418 0-8-3.582-8-8v-29.001c0-4.418 3.582-8 8-8h86.497c4.418 0 8 3.582 8 8v29.001c0 4.418-3.582 8-8 8h-1.522v100.593c0 23.044-18.682 41.726-41.726 41.726zm0-67.452v51.452h152.444c14.208 0 25.726-11.518 25.726-25.726v-100.593h-51.453v66.867c0 4.418-3.581 8-8 8zm-16-9.523h-13v70.497h13zm203.692-81.344v-13.001h-70.497v13.001zm-300.802-63.23h1.523c4.418 0 8 3.581 8 8v29c0 4.418-3.582 8-8 8h-86.497c-4.419 0-8-3.582-8-8v-29c0-4.419 3.581-8 8-8h1.522v-100.593c0-23.045 18.681-41.726 41.726-41.726h152.443v-1.523c0-4.418 3.582-8 8-8h29.001c4.418 0 8 3.582 8 8v86.497c0 4.418-3.582 8-8 8h-29.001c-4.418 0-8-3.582-8-8v-1.522c-26.647 0-110.717 0-110.717 0zm-67.452 0h51.452v-66.867c0-4.418 3.582-8 8-8h118.717v-51.452h-152.443c-14.208 0-25.726 11.518-25.726 25.726zm-9.522 16v13h70.497v-13zm203.691-81.345h13.001v-70.497h-13.001zm-93.161 127.393c8.071 0 14.665 6.594 14.665 14.666v195.741c0 8.072-6.594 14.665-14.665 14.665h-153.26c-8.072 0-14.666-6.593-14.666-14.665v-158.609c0-3.982 1.462-7.515 4.307-10.359 0 0 37.086-37.086 37.084-37.085 2.87-2.951 6.403-4.354 10.407-4.354zm-126.885 27.421-13.62 13.62h13.62zm-24.978 29.683v151.906h150.465v-192.947h-109.424v29.666c0 6.3-5.075 11.375-11.375 11.375zm121.879 68.847c4.433 0 8.032 3.599 8.032 8.031 0 4.433-3.599 8.032-8.032 8.032h-93.293c-4.433 0-8.031-3.599-8.031-8.032 0-4.432 3.598-8.031 8.031-8.031zm0-42.944c4.433 0 8.032 3.599 8.032 8.032s-3.599 8.031-8.032 8.031h-93.293c-4.433 0-8.031-3.598-8.031-8.031s3.598-8.032 8.031-8.032zm0 85.888c4.433 0 8.032 3.598 8.032 8.031s-3.599 8.032-8.032 8.032h-93.293c-4.433 0-8.031-3.599-8.031-8.032s3.598-8.031 8.031-8.031zm0-128.831c4.433 0 8.032 3.598 8.032 8.031s-3.599 8.032-8.032 8.032h-58.629c-4.433 0-8.032-3.599-8.032-8.032s3.599-8.031 8.032-8.031zm340.086-311.054c8.072 0 14.666 6.593 14.666 14.665v195.741c0 8.072-6.594 14.666-14.666 14.666h-153.26c-8.071 0-14.665-6.594-14.665-14.666v-158.609c0-3.981 1.462-7.515 4.306-10.359 0 0 37.087-37.086 37.085-37.084 2.869-2.952 6.403-4.354 10.407-4.354zm-126.885 27.421-13.619 13.619h13.619zm-24.977 29.682v151.906h150.465v-192.947h-109.425v29.667c0 6.299-5.074 11.374-11.374 11.374zm121.879-17.04c4.433 0 8.031 3.599 8.031 8.032 0 4.432-3.598 8.031-8.031 8.031h-58.63c-4.432 0-8.031-3.599-8.031-8.031 0-4.433 3.599-8.032 8.031-8.032zm0 85.887c4.433 0 8.031 3.599 8.031 8.032 0 4.432-3.598 8.031-8.031 8.031h-93.293c-4.433 0-8.032-3.599-8.032-8.031 0-4.433 3.599-8.032 8.032-8.032zm0-42.943c4.433 0 8.031 3.598 8.031 8.031s-3.598 8.032-8.031 8.032h-93.293c-4.433 0-8.032-3.599-8.032-8.032s3.599-8.031 8.032-8.031zm0 85.887c4.433 0 8.031 3.599 8.031 8.031 0 4.433-3.598 8.032-8.031 8.032h-93.293c-4.433 0-8.032-3.599-8.032-8.032 0-4.432 3.599-8.031 8.032-8.031z" fill="#69f"/></svg>